<?xml version="1.0" encoding="iso-8859-1"?>
<!-- Generator: Adobe Illustrator 18.1.1, SVG Export Plug-In . SVG Version: 6.00 Build 0)  -->
<svg version="1.1" id="Capa_1" xmlns="http://www.w3.org/2000/svg" xmlns:xlink="http://www.w3.org/1999/xlink" x="0px" y="0px"
	 viewBox="0 0 25.824 25.824" style="enable-background:new 0 0 25.824 25.824;" xml:space="preserve">
<g>
	<g>
		<path style="fill:#030104;" d="M19.94,8.809l-0.286-1.667l1.384-1.349l-1.911-0.279L18.27,3.78l-0.857,1.734L15.5,5.793
			l1.386,1.349l-0.283,1.655H9.007L8.724,7.143l1.386-1.349L8.196,5.515L7.341,3.781L6.483,5.515L4.569,5.793l1.386,1.349
			L5.664,8.835C4.942,8.991,4.398,9.632,4.398,10.4v13.824c0,0.882,0.719,1.6,1.603,1.6h13.823c0.885,0,1.601-0.718,1.601-1.6V10.4
			C21.428,9.555,20.769,8.869,19.94,8.809z M18.272,8.149l1.231,0.649h-2.47L18.272,8.149z M7.339,8.149l1.234,0.649H6.106
			L7.339,8.149z M14.296,25.349h-2.561v-5.098h2.561V25.349z M20.055,24.224c0,0.125-0.101,0.228-0.229,0.228h-5.015v-4.713h-3.59
			v4.713H6.003c-0.127,0-0.23-0.103-0.23-0.228V10.4c0-0.127,0.103-0.23,0.23-0.23h13.823c0.128,0,0.229,0.103,0.229,0.23V24.224
			L20.055,24.224z"/>
		<rect x="7.192" y="11.674" style="fill:#030104;" width="2.918" height="2.918"/>
		<rect x="11.478" y="11.674" style="fill:#030104;" width="2.917" height="2.918"/>
		<rect x="15.89" y="11.674" style="fill:#030104;" width="2.916" height="2.918"/>
		<rect x="7.192" y="15.623" style="fill:#030104;" width="2.918" height="2.919"/>
		<rect x="11.476" y="15.623" style="fill:#030104;" width="2.917" height="2.919"/>
		<rect x="15.89" y="15.623" style="fill:#030104;" width="2.916" height="2.919"/>
		<rect x="15.89" y="19.739" style="fill:#030104;" width="2.916" height="2.913"/>
		<rect x="7.192" y="19.739" style="fill:#030104;" width="2.918" height="2.913"/>
		<polygon style="fill:#030104;" points="10.084,8.779 12.937,7.279 15.789,8.779 15.244,5.603 17.55,3.353 14.362,2.891 12.937,0 
			11.51,2.891 8.323,3.353 10.63,5.603 		"/>
	</g>
</g>
<g>
</g>
<g>
</g>
<g>
</g>
<g>
</g>
<g>
</g>
<g>
</g>
<g>
</g>
<g>
</g>
<g>
</g>
<g>
</g>
<g>
</g>
<g>
</g>
<g>
</g>
<g>
</g>
<g>
</g>
</svg>
